HIERARCHY
ROOT Hips
{
	OFFSET 0.000000 89.005402 0.000000
	CHANNELS 6 Xposition Yposition Zposition Xrotation Yrotation Zrotation
	JOINT Spine
	{
		OFFSET 0.116900 10.681000 0.373400
		CHANNELS 3 Xrotation Yrotation Zrotation
		JOINT Spine1
		{
			OFFSET 0.000000 13.840401 0.053500
			CHANNELS 3 Xrotation Yrotation Zrotation
			JOINT Spine2
			{
				OFFSET 0.000000 14.712700 -0.366200
				CHANNELS 3 Xrotation Yrotation Zrotation
				JOINT Neck
				{
					OFFSET 0.000000 35.415497 -3.314200
					CHANNELS 3 Xrotation Yrotation Zrotation
					JOINT Head
					{
						OFFSET 0.000000 16.899200 1.218300
						CHANNELS 3 Xrotation Yrotation Zrotation
						JOINT HeadTop_End
						{
							OFFSET 0.000000 22.206207 2.192500
							CHANNELS 3 Xrotation Yrotation Zrotation
							End Site
							{
								OFFSET 0.000000 22.314178 0.000000
							}
						}
					}
				}
				JOINT LeftShoulder
				{
					OFFSET 12.896400 26.716293 -4.548400
					CHANNELS 3 Xrotation Yrotation Zrotation
					JOINT LeftArm
					{
						OFFSET 19.027000 -4.857010 -1.718400
						CHANNELS 3 Xrotation Yrotation Zrotation
						JOINT LeftForeArm
						{
							OFFSET 24.179897 0.000000 0.000000
							CHANNELS 3 Xrotation Yrotation Zrotation
							JOINT LeftHand
							{
								OFFSET 27.156403 0.000000 0.000000
								CHANNELS 3 Xrotation Yrotation Zrotation
								JOINT LeftHandIndex1
								{
									OFFSET 16.441200 0.000000 0.000000
									CHANNELS 3 Xrotation Yrotation Zrotation
									JOINT LeftHandIndex2
									{
										OFFSET 4.821899 0.000000 0.000000
										CHANNELS 3 Xrotation Yrotation Zrotation
										JOINT LeftHandIndex3
										{
											OFFSET 6.386497 0.000000 0.000000
											CHANNELS 3 Xrotation Yrotation Zrotation
											JOINT LeftHandIndex4
											{
												OFFSET 5.188988 0.000000 0.000000
												CHANNELS 3 Xrotation Yrotation Zrotation
												End Site
												{
													OFFSET -0.178703 5.185913 0.000177
												}
											}
										}
									}
								}
								JOINT LeftHandThumb1
								{
									OFFSET 6.534897 -5.032593 5.900300
									CHANNELS 3 Xrotation Yrotation Zrotation
									JOINT LeftHandThumb2
									{
										OFFSET 3.818176 -2.204422 2.204423
										CHANNELS 3 Xrotation Yrotation Zrotation
										JOINT LeftHandThumb3
										{
											OFFSET 3.252098 -1.877594 1.877601
											CHANNELS 3 Xrotation Yrotation Zrotation
											JOINT LeftHandThumb4
											{
												OFFSET 5.251778 -3.032120 3.032117
												CHANNELS 3 Xrotation Yrotation Zrotation
												End Site
												{
													OFFSET 0.000023 6.780014 0.000000
												}
											}
										}
									}
								}
							}
						}
					}
				}
				JOINT RightShoulder
				{
					OFFSET -12.896300 26.716293 -4.548400
					CHANNELS 3 Xrotation Yrotation Zrotation
					JOINT RightArm
					{
						OFFSET -19.027000 -4.857010 -1.718400
						CHANNELS 3 Xrotation Yrotation Zrotation
						JOINT RightForeArm
						{
							OFFSET -24.179897 0.000000 0.000000
							CHANNELS 3 Xrotation Yrotation Zrotation
							JOINT RightHand
							{
								OFFSET -27.156403 0.000000 0.000000
								CHANNELS 3 Xrotation Yrotation Zrotation
								JOINT RightHandThumb1
								{
									OFFSET -6.591202 -4.852203 5.988100
									CHANNELS 3 Xrotation Yrotation Zrotation
									JOINT RightHandThumb2
									{
										OFFSET -3.818176 -2.204422 2.204423
										CHANNELS 3 Xrotation Yrotation Zrotation
										JOINT RightHandThumb3
										{
											OFFSET -3.252098 -1.877594 1.877601
											CHANNELS 3 Xrotation Yrotation Zrotation
											JOINT RightHandThumb4
											{
												OFFSET -5.251778 -3.032120 3.032117
												CHANNELS 3 Xrotation Yrotation Zrotation
												End Site
												{
													OFFSET -0.000023 6.780014 0.000000
												}
											}
										}
									}
								}
								JOINT RightHandIndex1
								{
									OFFSET -16.029404 0.000000 0.000000
									CHANNELS 3 Xrotation Yrotation Zrotation
									JOINT RightHandIndex2
									{
										OFFSET -5.213303 0.000000 0.000000
										CHANNELS 3 Xrotation Yrotation Zrotation
										JOINT RightHandIndex3
										{
											OFFSET -6.386528 0.000000 0.000000
											CHANNELS 3 Xrotation Yrotation Zrotation
											JOINT RightHandIndex4
											{
												OFFSET -5.189026 0.000000 0.000000
												CHANNELS 3 Xrotation Yrotation Zrotation
												End Site
												{
													OFFSET 0.236702 5.183624 0.001972
												}
											}
										}
									}
								}
							}
						}
					}
				}
			}
		}
	}
	JOINT LeftUpLeg
	{
		OFFSET 14.073000 -7.904099 -1.463000
		CHANNELS 3 Xrotation Yrotation Zrotation
		JOINT LeftLeg
		{
			OFFSET -0.109806 -34.073280 4.093200
			CHANNELS 3 Xrotation Yrotation Zrotation
			JOINT LeftFoot
			{
				OFFSET 0.109806 -29.899420 -6.319000
				CHANNELS 3 Xrotation Yrotation Zrotation
				JOINT LeftToeBase
				{
					OFFSET 1.551100 -14.988700 20.535801
					CHANNELS 3 Xrotation Yrotation Zrotation
					JOINT LeftToe_End
					{
						OFFSET 0.221200 0.570800 13.248301
						CHANNELS 3 Xrotation Yrotation Zrotation
						End Site
						{
							OFFSET 0.000000 13.262435 0.000000
						}
					}
				}
			}
		}
	}
	JOINT RightUpLeg
	{
		OFFSET -13.839300 -7.904099 -1.463000
		CHANNELS 3 Xrotation Yrotation Zrotation
		JOINT RightLeg
		{
			OFFSET 0.109694 -34.073219 4.093300
			CHANNELS 3 Xrotation Yrotation Zrotation
			JOINT RightFoot
			{
				OFFSET -0.109694 -29.899384 -6.319200
				CHANNELS 3 Xrotation Yrotation Zrotation
				JOINT RightToeBase
				{
					OFFSET -1.551100 -14.988700 20.535801
					CHANNELS 3 Xrotation Yrotation Zrotation
					JOINT RightToe_End
					{
						OFFSET -0.221200 0.570900 13.248299
						CHANNELS 3 Xrotation Yrotation Zrotation
						End Site
						{
							OFFSET 0.000000 13.262440 0.000000
						}
					}
				}
			}
		}
	}
}
MOTION
Frames: 8
Frame Time: 0.033333
1.550435 82.041534 -5.925122 -8.766226 0.723806 -5.844497 22.240626 0.321569 -11.036220 4.284259 0.163062 0.812275 4.277879 0.272151 0.811072 6.264857 2.093813 -5.370289 32.403312 5.079150 -5.450633 -0.000001 0.000001 -0.000002 0.678628 -4.552218 -8.741711 -18.628678 -17.153720 -57.127286 0.000003 -10.553539 0.000005 -4.862880 -6.352548 10.165563 0.361678 1.703765 -16.622392 0.430141 2.399793 -20.320528 0.297196 2.004880 -16.862294 0.000000 -0.000000 0.000002 2.671681 15.659472 9.918406 3.432499 10.370170 1.774419 -1.187724 8.235764 6.329331 0.000000 0.000000 0.000002 -0.197332 2.273663 -1.792956 -15.185686 10.934927 80.670422 0.000006 11.658675 0.000002 21.018265 12.229023 -8.403704 1.824009 -18.047703 -10.890916 1.784303 -7.967559 -2.688599 -2.771712 -6.372912 -6.884924 -0.000000 -0.000001 -0.000001 3.109239 -8.830097 22.565383 0.213499 -1.713160 14.206912 0.175226 -1.554219 12.864279 0.000000 -0.000001 0.000000 -16.022823 11.205232 11.252962 43.193273 7.930218 4.203005 -19.307321 7.703355 -6.621511 -4.107884 0.000013 -0.000003 0.000000 -0.000000 -0.000000 -15.562427 -6.777375 -3.279468 28.576224 -7.906387 -0.544384 -1.231772 -12.111820 7.178052 -4.226464 0.000014 0.000000 -0.000000 0.000002 0.000000 
1.666528 82.092117 -5.882206 -9.402220 1.441915 -5.809720 22.300219 0.653909 -11.167305 4.067268 0.208441 0.960747 4.059039 0.321082 0.959798 6.335178 1.889704 -5.395061 32.127728 4.390125 -6.235399 0.000002 -0.000001 -0.000001 0.655809 -3.758622 -8.769379 -20.661778 -19.546292 -60.281699 -0.000004 -3.683538 0.000013 -5.817238 -3.025169 14.949221 0.546015 2.343824 -15.823574 0.431106 2.402398 -20.343555 0.287111 1.971321 -16.571639 0.000000 -0.000000 0.000001 2.719722 15.765801 9.862599 3.432498 10.370170 1.774421 -1.348616 7.930128 6.370254 0.000002 -0.000001 0.000001 -0.200144 2.055910 -2.051569 -15.816269 12.140882 82.155885 0.000004 10.792827 -0.000026 24.554725 13.559324 -3.811087 1.810325 -17.923347 -10.845162 1.783491 -7.967982 -2.688370 -2.673396 -6.567318 -6.856426 -0.000000 0.000001 0.000002 3.310861 -9.105095 23.293689 0.213530 -1.713202 14.207225 0.173919 -1.548470 12.816014 0.000002 0.000001 -0.000002 -15.375661 11.266364 11.226071 43.088593 8.029680 4.237198 -19.349475 6.959795 -6.546294 -4.091111 0.000011 -0.000001 0.000000 -0.000001 -0.000000 -14.510358 -7.163567 -3.585308 28.444164 -7.918083 -0.360629 -1.388768 -12.267623 7.283831 -4.268350 0.000007 -0.000002 -0.000000 -0.000000 0.000000 
1.770897 82.297218 -5.718275 -9.837982 2.207897 -5.714872 22.035739 0.702522 -11.193089 3.770617 0.217650 1.027723 3.761777 0.326719 1.026395 6.256219 1.726258 -5.418484 31.171508 4.143515 -7.507986 -0.000001 -0.000000 0.000002 0.631495 -3.168545 -8.815899 -20.041947 -20.727536 -62.095852 0.000001 -1.294820 -0.000009 -6.804230 1.292968 15.287449 0.716857 3.061467 -16.186548 0.431456 2.403351 -20.351998 0.279362 1.945113 -16.344873 0.000001 0.000000 0.000002 2.757279 15.742560 9.756796 3.432498 10.370172 1.774420 -1.456897 7.723316 6.397985 -0.000001 0.000000 0.000002 -0.191215 1.638684 -2.210153 -15.575358 13.129353 83.198691 0.000004 11.055258 0.000007 26.325321 14.120811 -0.389621 1.779527 -17.721370 -10.785325 1.781510 -7.964103 -2.687057 -2.641304 -6.631545 -6.845948 -0.000003 -0.000002 -0.000004 3.499204 -9.240337 24.236125 0.213526 -1.713232 14.207377 0.169724 -1.529908 12.659581 -0.000001 0.000001 -0.000003 -14.596317 11.437848 11.166915 42.425508 8.127808 4.218920 -19.179723 6.052351 -6.448869 -4.090657 0.000001 0.000000 0.000000 -0.000001 0.000000 -13.253235 -7.433507 -3.808310 27.729765 -8.015010 -0.247640 -1.341050 -12.570321 7.446318 -4.281038 0.000000 -0.000004 0.000000 0.000002 0.000000 
1.878598 82.604614 -5.460306 -10.181591 2.808714 -5.646988 21.513593 0.554605 -11.091666 3.433321 0.202590 0.984206 3.425072 0.301245 0.982546 6.032871 1.679394 -5.487441 29.770944 4.460847 -8.776467 0.000003 -0.000001 -0.000000 0.612554 -2.860927 -8.877323 -16.901402 -21.218563 -62.550428 0.000002 -2.056366 -0.000016 -5.413058 4.395917 9.740910 0.851311 3.606626 -17.556976 0.430207 2.399989 -20.322244 0.278410 1.941850 -16.316661 -0.000000 0.000000 0.000000 2.771354 15.628304 9.658674 3.432499 10.370172 1.774422 -1.457755 7.720809 6.398150 -0.000000 0.000001 0.000000 -0.183928 1.374511 -2.236130 -14.447807 14.187934 83.588183 0.000003 11.963612 -0.000000 26.284735 13.696961 0.613931 1.751797 -17.563205 -10.743666 1.780080 -7.960123 -2.685862 -2.695688 -6.525813 -6.859378 -0.000003 0.000000 -0.000003 3.635514 -9.218849 25.180191 0.213520 -1.713205 14.207356 0.163606 -1.502429 12.428635 0.000004 0.000001 -0.000000 -13.635198 11.718469 11.120440 41.405262 8.171448 4.183313 -18.921045 5.263862 -6.349585 -4.085003 -0.000027 0.000002 0.000000 0.000001 -0.000000 -11.817057 -7.460593 -3.795801 26.521334 -8.206214 -0.315184 -1.053107 -12.958903 7.703471 -4.257914 0.000003 -0.000002 -0.000000 -0.000000 0.000000 
1.981977 82.935242 -5.144934 -10.508727 3.116111 -5.644330 20.833855 0.370022 -10.925855 3.082405 0.182705 0.882423 3.075086 0.268371 0.880721 5.736320 1.734591 -5.621807 28.451781 5.073824 -9.742048 0.000001 0.000000 0.000001 0.601168 -2.640339 -8.935701 -12.166175 -21.941411 -62.146416 -0.000001 -3.942453 -0.000003 -1.948380 3.890704 1.038535 0.900284 3.780839 -19.131510 0.427182 2.391810 -20.249800 0.285615 1.966284 -16.527999 -0.000001 -0.000001 0.000000 2.733879 15.488984 9.650904 3.432499 10.370171 1.774418 -1.345780 7.933635 6.369135 -0.000001 -0.000001 -0.000000 -0.185109 1.539688 -2.182697 -12.715442 15.294602 83.347788 0.000003 12.928411 0.000014 25.504510 13.112131 0.126808 1.756733 -17.525500 -10.713147 1.779700 -7.958324 -2.685423 -2.797992 -6.325118 -6.885757 -0.000001 0.000002 0.000001 3.681142 -9.050732 25.985711 0.213512 -1.713212 14.207266 0.157371 -1.473894 12.188609 -0.000000 -0.000000 -0.000001 -12.535968 12.069104 11.120398 40.296313 8.183014 4.146153 -18.698850 4.737566 -6.296296 -4.065579 -0.000008 -0.000002 0.000001 0.000000 -0.000000 -10.342562 -7.246155 -3.538445 25.097551 -8.439468 -0.582594 -0.618216 -13.326217 8.029836 -4.224785 -0.000015 -0.000003 -0.000000 0.000000 0.000000 
2.064336 83.228119 -4.801010 -10.842443 3.088788 -5.680658 20.067857 0.308695 -10.798647 2.766722 0.176896 0.797285 2.759893 0.251723 0.795689 5.402231 1.843284 -5.829026 27.698925 5.636863 -10.437278 0.000003 -0.000001 0.000001 0.598247 -2.173018 -9.032098 -6.385309 -23.095105 -61.179452 0.000004 -7.052544 0.000012 0.892572 0.362026 -5.859434 0.811326 3.490419 -19.908425 0.424080 2.383403 -20.175534 0.298953 2.010655 -16.912436 -0.000001 0.000002 -0.000000 2.609208 15.365677 9.804374 3.432501 10.370173 1.774418 -1.164290 8.278241 6.322357 -0.000001 -0.000000 -0.000000 -0.195317 2.019636 -2.152989 -10.832858 16.225149 82.782057 -0.000003 13.733245 -0.000005 24.772516 12.982477 -0.097158 1.815363 -17.609597 -10.659373 1.780069 -7.958592 -2.685597 -2.886689 -6.150020 -6.907676 -0.000003 -0.000001 -0.000003 3.625408 -8.764559 26.616615 0.213523 -1.713196 14.207216 0.152748 -1.452313 12.007316 0.000001 -0.000003 0.000003 -11.362873 12.437440 11.164419 39.268305 8.404661 4.104504 -18.575208 4.318659 -6.404617 -4.041306 0.000005 0.000002 -0.000000 0.000000 0.000000 -9.012402 -6.904723 -3.167968 23.777244 -8.643814 -0.975624 -0.192599 -13.524314 8.355361 -4.213683 -0.000004 0.000003 -0.000000 -0.000000 0.000000 
2.116848 83.440422 -4.450747 -11.185627 2.746867 -5.729474 19.242108 0.469596 -10.730442 2.547728 0.196157 0.762840 2.540652 0.264387 0.761265 5.072630 1.976741 -6.133677 27.670179 5.953718 -10.934405 0.000001 -0.000001 -0.000001 0.605461 -1.226461 -9.239049 0.206216 -24.170158 -59.748678 0.000002 -12.830559 0.000016 2.326131 -2.644247 -8.578918 0.608480 2.757533 -19.235894 0.425074 2.386105 -20.199361 0.314127 2.059873 -17.339607 0.000002 0.000000 0.000000 2.377767 15.252772 10.139430 3.432502 10.370172 1.774419 -0.980297 8.625981 6.275351 0.000000 -0.000000 -0.000003 -0.213956 2.496823 -2.242663 -9.262391 16.789874 82.283323 -0.000010 14.296248 -0.000001 24.051500 13.107020 0.289774 1.929480 -17.759533 -10.551439 1.780596 -7.959792 -2.686015 -2.920046 -6.083151 -6.913464 0.000001 0.000003 0.000002 3.495864 -8.413935 27.075094 0.213541 -1.713190 14.207190 0.150903 -1.443603 11.934220 -0.000002 -0.000002 0.000000 -10.190786 12.795226 11.186883 38.457643 8.624691 4.077527 -18.593218 4.234620 -6.586392 -4.018487 0.000005 0.000002 0.000000 -0.000001 -0.000000 -7.971634 -6.581080 -2.838173 22.833524 -8.780005 -1.362072 0.070165 -13.424136 8.601804 -4.234335 -0.000007 -0.000001 0.000000 -0.000001 0.000000 
2.140649 83.543983 -4.110624 -11.545989 2.156480 -5.799056 18.347669 0.883340 -10.635498 2.474788 0.242666 0.771108 2.466674 0.308312 0.769657 4.863823 2.099694 -6.550265 28.006615 5.967042 -11.254489 0.000000 -0.000003 -0.000000 0.624721 0.151576 -9.595777 6.715074 -24.835104 -58.093252 0.000003 -20.218653 0.000023 2.888366 -3.366022 -8.977375 0.408642 1.750719 -17.316614 0.434996 2.412876 -20.436430 0.326725 2.099757 -17.686695 -0.000002 -0.000001 -0.000002 2.069979 15.113631 10.586324 3.432503 10.370172 1.774419 -0.846332 8.877423 6.241439 -0.000001 -0.000001 -0.000001 -0.243106 2.775497 -2.485651 -8.240114 16.968499 82.067366 -0.000003 14.559197 0.000011 23.207967 13.008785 0.692885 2.078287 -17.901550 -10.387022 1.780929 -7.960748 -2.686282 -2.900796 -6.119742 -6.904411 0.000003 -0.000002 -0.000004 3.349628 -8.088499 27.347984 0.213502 -1.713185 14.207196 0.152010 -1.448881 11.978486 0.000002 -0.000003 0.000003 -9.097230 13.116502 11.164942 37.984051 8.685520 4.104098 -18.791049 4.618140 -6.781557 -3.993963 0.000019 -0.000001 -0.000000 0.000000 -0.000000 -7.280810 -6.394290 -2.644184 22.442137 -8.835913 -1.601038 0.058955 -12.970355 8.704035 -4.270945 0.000002 0.000002 0.000000 0.000000 -0.000000 
